<svg xmlns="http://www.w3.org/2000/svg"><defs><symbol id="arrow" viewBox="0 0 18 10"><path fill-rule="evenodd" clip-rule="evenodd" d="M.293.293a1 1 0 0 1 1.414 0L9 7.586 16.293.293a1 1 0 1 1 1.414 1.414l-8 8a1 1 0 0 1-1.414 0l-8-8a1 1 0 0 1 0-1.414Z" fill="currentColor"/></symbol><symbol id="search" viewBox="0 0 20 20"><path d="m18.942 17.858-4.576-4.576a7.679 7.679 0 1 0-1.084 1.084l4.576 4.576a.767.767 0 0 0 1.084-1.084ZM8.433 14.567a6.133 6.133 0 1 1 6.134-6.134 6.14 6.14 0 0 1-6.134 6.134Z" fill="#292D32"/></symbol><symbol id="profile" viewBox="0 0 21 23" fill="none"><path d="M20.223 21.858v-2.24a4.4 4.4 0 0 0-1.36-3.166 4.733 4.733 0 0 0-3.284-1.312h-9.29a4.733 4.733 0 0 0-3.284 1.311 4.4 4.4 0 0 0-1.36 3.167v2.24m9.289-11.198c2.565 0 4.644-2.005 4.644-4.478 0-2.474-2.08-4.479-4.644-4.479-2.565 0-4.645 2.005-4.645 4.479 0 2.473 2.08 4.479 4.645 4.479Z" stroke="#292D32" stroke-width="1.5" stroke-linecap="round" stroke-linejoin="round"/></symbol><symbol id="signal" viewBox="0 0 24 24" fill="none"><g clip-path="url(#clip0_1163_17)"><g clip-path="url(#clip1_1163_17)"><path d="M9.95 6.95A2.9 2.9 0 0 1 14.9 9v12a2.9 2.9 0 1 1-5.8 0V9a2.9 2.9 0 0 1 .85-2.05Zm2.828 14.828A1.1 1.1 0 0 0 13.1 21V9a1.1 1.1 0 0 0-2.2 0v12a1.1 1.1 0 0 0 1.878.778ZM18.95.95A2.9 2.9 0 0 1 23.9 3v18a2.9 2.9 0 1 1-5.8 0V3a2.9 2.9 0 0 1 .85-2.05Zm2.828 20.828A1.1 1.1 0 0 0 22.1 21V3a1.1 1.1 0 0 0-2.2 0v18a1.1 1.1 0 0 0 1.878.778Z" fill="#292D32" stroke="#FAFAFA" stroke-width=".2"/><rect x=".75" y="12.75" width="4.5" height="10.5" rx="2.25" stroke="#292D32" stroke-width="1.5"/></g></g><defs><clipPath id="clip0_1163_17"><path fill="#fff" d="M0 0h24v24H0z"/></clipPath><clipPath id="clip1_1163_17"><path fill="#fff" d="M0 0h24v24H0z"/></clipPath></defs></symbol><symbol id="favourite" viewBox="0 0 24 23" fill="none"><path d="M0 0h24v23H0z"/><g clip-path="url(#clip0_0_1)"><path transform="translate(-1545 -50)" d="M0 0h1920v5682H0z"/><path transform="translate(-1545 -50)" d="M0 0h1920v123H0z"/><circle cx="11.5" cy="11.5" r="24.5"/><g clip-path="url(#clip1_0_1)"><g clip-path="url(#clip2_0_1)"><mask id="path-2-inside-1_0_1" fill="none"><path d="M17.5.917a6.4 6.4 0 0 0-5.5 3.3 6.4 6.4 0 0 0-5.5-3.3A6.8 6.8 0 0 0 0 7.967c0 4.547 4.786 9.513 8.8 12.88a4.974 4.974 0 0 0 6.4 0c4.014-3.367 8.8-8.333 8.8-12.88a6.8 6.8 0 0 0-6.5-7.05Zm-3.585 18.4a2.973 2.973 0 0 1-3.83 0C4.947 15.006 2 10.87 2 7.967a4.8 4.8 0 0 1 4.5-5.05 4.8 4.8 0 0 1 4.5 5.05 1 1 0 0 0 2 0 4.8 4.8 0 0 1 4.5-5.05 4.8 4.8 0 0 1 4.5 5.05c0 2.903-2.947 7.039-8.085 11.346v.004Z"/></mask><path d="M17.5.917a6.4 6.4 0 0 0-5.5 3.3 6.4 6.4 0 0 0-5.5-3.3A6.8 6.8 0 0 0 0 7.967c0 4.547 4.786 9.513 8.8 12.88a4.974 4.974 0 0 0 6.4 0c4.014-3.367 8.8-8.333 8.8-12.88a6.8 6.8 0 0 0-6.5-7.05Zm-3.585 18.4a2.973 2.973 0 0 1-3.83 0C4.947 15.006 2 10.87 2 7.967a4.8 4.8 0 0 1 4.5-5.05 4.8 4.8 0 0 1 4.5 5.05 1 1 0 0 0 2 0 4.8 4.8 0 0 1 4.5-5.05 4.8 4.8 0 0 1 4.5 5.05c0 2.903-2.947 7.039-8.085 11.346v.004Z" fill="#292D32" stroke-width=".6" mask="url(#path-2-inside-1_0_1)"/></g></g></g><defs><clipPath id="clip0_0_1"><path transform="translate(-1545 -50)" d="M0 0h1920v5682H0z"/></clipPath><clipPath id="clip1_0_1"><path transform="translate(0 -1)" d="M0 0h24v24H0z"/></clipPath><clipPath id="clip2_0_1"><path transform="translate(0 -1)" d="M0 0h24v24H0z"/></clipPath></defs></symbol><symbol id="shoppingbag" viewBox="0 0 22 24"><path d="M16.116 7.696V5.558a5.073 5.073 0 0 0-10.145 0v5.072a.725.725 0 0 0 1.45 0V9.145h5.796v-1.45H7.42V5.559a3.623 3.623 0 1 1 7.246 0v5.036a.725.725 0 0 0 1.45 0v-1.45h3.623v13.044H2.348V9.145h2.174v-1.45H.899v14.558a1.384 1.384 0 0 0 1.384 1.385h17.521a1.384 1.384 0 0 0 1.384-1.385V7.696h-5.072Z" fill="#292D32"/></symbol><symbol id="burger" viewBox="0 0 18 18" fill="none"><path stroke="#292D32" stroke-width="1.5" stroke-linecap="round" d="M.75 1.25h16.5m-16.5 8h16.5m-16.5 8h16.5"/></symbol><symbol id="cross" viewBox="0 0 15 15" fill="none"><path stroke="#292D32" stroke-width="1.5" stroke-linecap="round" d="M13.303 13.364 1.636 1.697m0 11.606L13.303 1.636"/></symbol><symbol id="follow" viewBox="0 0 12 11" fill="none"><path d="M4.708 1.63 6.226.093l5.304 5.305-5.304 5.304-1.518-1.518 2.699-2.718H.978V4.311h6.429L4.708 1.63Z" fill="#fff"/></symbol><symbol id="mouse" viewBox="0 0 25 39" fill="none"><path fill-rule="evenodd" clip-rule="evenodd" d="M23 13v13.5C23 32.299 18.299 37 12.5 37S2 32.299 2 26.5V13C2 7.201 6.701 2.5 12.5 2.5S23 7.201 23 13ZM0 13C0 6.096 5.596.5 12.5.5S25 6.096 25 13v13.5C25 33.404 19.404 39 12.5 39S0 33.404 0 26.5V13Zm11.5 7.5v9h2v-9h-2Z" fill="#33A9FF"/></symbol><symbol id="next" viewBox="0 0 106 23" fill="none"><path d="m94 1 10.5 10.5m0 0L94 22m10.5-10.5H0" stroke="#292D32" stroke-width="1.5"/></symbol><symbol id="card" viewBox="0 0 37 37" fill="none"><path d="m5.912 23.89 17.98-17.978m-7.19 21.59 1.806-1.806m2.244-2.242 3.596-3.596" stroke="#fff" stroke-width="3" stroke-miterlimit="10" stroke-linecap="round" stroke-linejoin="round"/><path d="m5.418 15.405 9.99-9.99c3.19-3.19 4.785-3.205 7.944-.045l7.388 7.387c3.16 3.16 3.144 4.754-.045 7.944l-9.99 9.99c-3.19 3.19-4.785 3.205-7.944.045L5.373 23.35c-3.16-3.16-3.16-4.74.045-7.944ZM3.01 33.098H33.1" stroke="#fff" stroke-width="3" stroke-linecap="round" stroke-linejoin="round"/></symbol><symbol id="certified" viewBox="0 0 36 36" fill="none" xmlns="http://www.w3.org/2000/svg"><path d="m12.57 18 3.615 3.63 7.245-7.26" stroke="#fff" stroke-width="3" stroke-linecap="round" stroke-linejoin="round"/><path d="M16.125 3.675c1.035-.885 2.73-.885 3.78 0l2.37 2.04c.45.39 1.29.705 1.89.705h2.55a2.906 2.906 0 0 1 2.895 2.895v2.55c0 .585.315 1.44.705 1.89l2.04 2.37c.885 1.035.885 2.73 0 3.78l-2.04 2.37c-.39.45-.705 1.29-.705 1.89v2.55a2.906 2.906 0 0 1-2.895 2.895h-2.55c-.585 0-1.44.315-1.89.705l-2.37 2.04c-1.035.885-2.73.885-3.78 0l-2.37-2.04c-.45-.39-1.29-.705-1.89-.705H9.27a2.906 2.906 0 0 1-2.895-2.895V24.15c0-.585-.315-1.425-.69-1.875L3.66 19.89c-.87-1.035-.87-2.715 0-3.75l2.025-2.385c.375-.45.69-1.29.69-1.875V9.3A2.906 2.906 0 0 1 9.27 6.405h2.595c.585 0 1.44-.315 1.89-.705l2.37-2.025Z" stroke="#fff" stroke-width="3" stroke-linecap="round" stroke-linejoin="round"/></symbol><symbol id="group" viewBox="0 0 36 36" fill="none"><path d="M27 10.74a.908.908 0 0 0-.285 0 3.86 3.86 0 0 1-3.72-3.87A3.86 3.86 0 0 1 26.865 3a3.87 3.87 0 0 1 3.87 3.87A3.883 3.883 0 0 1 27 10.74Zm-1.545 10.92c2.055.345 4.32-.015 5.91-1.08 2.115-1.41 2.115-3.72 0-5.13-1.605-1.065-3.9-1.425-5.955-1.065M8.955 10.74a.908.908 0 0 1 .285 0 3.86 3.86 0 0 0 3.72-3.87A3.86 3.86 0 0 0 9.09 3a3.87 3.87 0 0 0-3.87 3.87 3.883 3.883 0 0 0 3.735 3.87ZM10.5 21.66c-2.055.345-4.32-.015-5.91-1.08-2.115-1.41-2.115-3.72 0-5.13 1.605-1.065 3.9-1.425 5.955-1.065M18 21.945a.908.908 0 0 0-.285 0 3.86 3.86 0 0 1-3.72-3.87 3.86 3.86 0 0 1 3.87-3.87 3.87 3.87 0 0 1 3.87 3.87c-.015 2.1-1.665 3.81-3.735 3.87Zm-4.365 4.725c-2.115 1.41-2.115 3.72 0 5.13 2.4 1.605 6.33 1.605 8.73 0 2.115-1.41 2.115-3.72 0-5.13-2.385-1.59-6.33-1.59-8.73 0Z" stroke="#fff" stroke-width="3" stroke-linecap="round" stroke-linejoin="round"/></symbol><symbol id="package" viewBox="0 0 36 37" fill="none"><path d="m19.38 3.415 9.765 5.304c1.14.62 1.14 2.387 0 3.007l-9.765 5.303c-.87.469-1.89.469-2.76 0l-9.765-5.303c-1.14-.62-1.14-2.388 0-3.007l9.765-5.304a2.886 2.886 0 0 1 2.76 0ZM5.415 15.307l9.075 4.578a3.385 3.385 0 0 1 1.845 3.007v8.644a1.664 1.664 0 0 1-2.415 1.496l-9.075-4.579A3.385 3.385 0 0 1 3 25.446v-8.643a1.664 1.664 0 0 1 2.415-1.496Zm25.17 0-9.075 4.578a3.385 3.385 0 0 0-1.845 3.007v8.644a1.664 1.664 0 0 0 2.415 1.496l9.075-4.579A3.385 3.385 0 0 0 33 25.446v-8.643a1.664 1.664 0 0 0-2.415-1.496Z" stroke="#fff" stroke-width="3" stroke-linecap="round" stroke-linejoin="round"/></symbol><symbol id="corner" viewBox="0 0 142 94" fill="none"><path d="m2.5 1 50.717 81.51A18 18 0 0 0 68.5 91H142" stroke="url(#paint0_linear_1_146)" stroke-width="5"/><defs><linearGradient id="paint0_linear_1_146" x1="88" y1="1" x2="88" y2="94.706" gradientUnits="userSpaceOnUse"><stop stop-color="#33A9FF" stop-opacity="0"/><stop offset="1" stop-color="#33A9FF"/></linearGradient></defs></symbol><symbol id="address" viewBox="0 0 38 38" fill="none"><path d="M19 21.264a4.94 4.94 0 1 0 0-9.88 4.94 4.94 0 0 0 0 9.88Z" stroke="#48A4EB" stroke-width="3"/><path d="M5.732 13.443C8.85-.27 29.165-.253 32.268 13.458c1.821 8.044-3.182 14.852-7.568 19.064-3.183 3.071-8.217 3.071-11.416 0-4.37-4.212-9.373-11.036-7.552-19.08Z" stroke="#48A4EB" stroke-width="3"/></symbol><symbol id="email" viewBox="0 0 36 36" fill="none"><path d="M25.5 30.75h-15C6 30.75 3 28.5 3 23.25v-10.5c0-5.25 3-7.5 7.5-7.5h15c4.5 0 7.5 2.25 7.5 7.5v10.5c0 5.25-3 7.5-7.5 7.5Z" stroke="#48A4EB" stroke-width="3" stroke-miterlimit="10" stroke-linecap="round" stroke-linejoin="round"/><path d="m25.5 13.5-4.695 3.75c-1.545 1.23-4.08 1.23-5.625 0L10.5 13.5" stroke="#48A4EB" stroke-width="3" stroke-miterlimit="10" stroke-linecap="round" stroke-linejoin="round"/></symbol><symbol id="phone" viewBox="0 0 34 34" fill="none"><path d="M31.955 26.495c0 .54-.12 1.095-.375 1.635a6.19 6.19 0 0 1-1.02 1.53c-.735.81-1.545 1.395-2.46 1.77-.9.375-1.875.57-2.925.57-1.53 0-3.165-.36-4.89-1.095-1.725-.735-3.45-1.725-5.16-2.97a43.125 43.125 0 0 1-4.92-4.2A42.62 42.62 0 0 1 6.02 18.83c-1.23-1.71-2.22-3.42-2.94-5.115C2.36 12.005 2 10.37 2 8.81c0-1.02.18-1.995.54-2.895C2.9 5 3.47 4.16 4.265 3.41 5.225 2.465 6.275 2 7.385 2c.42 0 .84.09 1.215.27.39.18.735.45 1.005.84l3.48 4.905c.27.375.465.72.6 1.05.135.315.21.63.21.915 0 .36-.105.72-.315 1.065-.195.345-.48.705-.84 1.065l-1.14 1.185a.803.803 0 0 0-.24.6c0 .12.015.225.045.345.045.12.09.21.12.3.27.495.735 1.14 1.395 1.92.675.78 1.395 1.575 2.175 2.37.81.795 1.59 1.53 2.385 2.205.78.66 1.425 1.11 1.935 1.38.075.03.165.075.27.12.12.045.24.06.375.06.255 0 .45-.09.615-.255l1.14-1.125c.375-.375.735-.66 1.08-.84.345-.21.69-.315 1.065-.315.285 0 .585.06.915.195.33.135.675.33 1.05.585l4.965 3.525c.39.27.66.585.825.96.15.375.24.75.24 1.17Z" stroke="#48A4EB" stroke-width="3" stroke-miterlimit="10"/><path d="M26.75 12.5c0-.9-.705-2.28-1.755-3.405C24.035 8.06 22.76 7.25 21.5 7.25M32 12.5C32 6.695 27.305 2 21.5 2" stroke="#48A4EB" stroke-width="3" stroke-linecap="round" stroke-linejoin="round"/></symbol><symbol id="facebook" viewBox="0 0 38 38" fill="none"><circle cx="18.856" cy="18.856" r="17.356" stroke="#292D32" stroke-width="3"/><path d="m22.952 19.954.489-3.386h-3.057V14.37c0-.927.427-1.83 1.796-1.83h1.39V9.656s-1.261-.229-2.467-.229c-2.518 0-4.163 1.622-4.163 4.558v2.582h-2.798v3.386h2.798v8.188c1.141.19 2.303.19 3.444 0v-8.188h2.568Z" fill="#292D32"/></symbol><symbol id="whatsapp" viewBox="0 0 38 38" fill="none"><path d="m9.367 33.391-.597-.39-.68.216c-.413.132-.967.304-1.597.5-.881.274-1.91.593-2.907.913.114-.36.23-.728.344-1.094.436-1.397.887-2.88 1.001-3.55l.105-.611-.359-.507A17.27 17.27 0 0 1 1.5 18.856C1.5 9.271 9.27 1.5 18.856 1.5c9.585 0 17.356 7.77 17.356 17.356 0 9.585-7.77 17.356-17.356 17.356a17.268 17.268 0 0 1-9.489-2.82Z" stroke="#292D32" stroke-width="3"/><path d="M28.284 24.824c0 .34-.076.688-.236 1.028-.16.34-.368.66-.642.961-.463.51-.973.877-1.549 1.113a4.747 4.747 0 0 1-1.841.358c-.963 0-1.992-.226-3.078-.688a16.587 16.587 0 0 1-3.248-1.867 27.126 27.126 0 0 1-3.097-2.64 26.802 26.802 0 0 1-2.635-3.083c-.774-1.075-1.397-2.15-1.85-3.215-.454-1.074-.68-2.102-.68-3.083 0-.64.113-1.254.34-1.82a4.34 4.34 0 0 1 1.086-1.574c.604-.594 1.265-.886 1.964-.886.264 0 .528.057.764.17.246.113.463.283.633.528l2.19 3.083c.17.235.293.452.378.66.085.198.133.396.133.575 0 .226-.067.452-.199.67a3.208 3.208 0 0 1-.528.669l-.718.744a.504.504 0 0 0-.151.377c0 .076.01.142.028.217.028.076.057.132.076.189.17.311.462.716.878 1.207.425.49.878.99 1.369 1.49.51.499 1 .961 1.501 1.385.491.415.897.698 1.218.868.047.018.104.047.17.075a.652.652 0 0 0 .236.038.52.52 0 0 0 .387-.16l.718-.708c.236-.235.463-.414.68-.528.217-.132.434-.198.67-.198.18 0 .368.038.576.123.208.085.425.207.661.368l3.125 2.215c.246.17.416.368.52.604.094.235.15.471.15.735Z" fill="#292D32"/></symbol></defs></svg>